<svg xmlns="http://www.w3.org/2000/svg" viewBox="0 0 64 64">
  <g>
    <circle cx="32" cy="32" r="32" fill="#f7931a"/>
    <path d="M44.5 28.7c.7-4.7-2.9-7.2-7.8-8.9l1.6-6.3-3.9-1-1.6 6.1c-1-.2-2-.4-3-.6l1.6-6.2-3.9-1-1.6 6.3c-.8-.2-1.6-.3-2.4-.5l.01-.04-5.4-1.4-1 4 2.9.7c1.6.4 1.9 1.5 1.8 2.4l-1.8 7.1c.1.03.2.07.3.1-.1-.02-.2-.05-.3-.07l-2.5 9.8c-.2.5-.7 1.2-1.8.9l-2.9-.7-1.1 4.2 5.1 1.3c.9.2 1.7.5 2.5.7l-1.6 6.4 3.9 1 1.6-6.3c1 .3 2 .5 3 .7l-1.6 6.2 3.9 1 1.6-6.3c6.7 1.3 11.7.8 13.8-5.3 1.7-4.8-.1-7.6-3.6-9.4 2.6-.6 4.5-2.3 5-5.8zm-8.9 12.7c-1.2 4.8-9.3 2.2-11.9 1.5l2.1-8.2c2.6.7 11.1 2.1 9.8 6.7zm1.2-12.8c-1.1 4.3-7.8 2.1-10 1.6l1.9-7.4c2.2.6 9.3 1.7 8.1 5.8z" fill="#fff"/>
  </g>
  <animateTransform attributeName="transform" attributeType="XML" type="rotate" from="0 32 32" to="360 32 32" dur="2s" repeatCount="indefinite"/>
</svg>
